<?xml version="1.0" encoding="utf-8"?>
<!-- Generator: Adobe Illustrator 22.1.0, SVG Export Plug-In . SVG Version: 6.00 Build 0)  -->
<svg version="1.1" id="Layer_1" xmlns="http://www.w3.org/2000/svg" xmlns:xlink="http://www.w3.org/1999/xlink" x="0px" y="0px"
	 viewBox="0 0 130 153" style="enable-background:new 0 0 130 153;" xml:space="preserve">
<style type="text/css">
	.st0{fill:#282828;}
	.st1{fill:#FFFFFF;}
</style>
<g>
	<path class="st0" d="M0.5,0.8c0,0,0,40.8,0,60.6c0,57.3,64.5,90.4,64.5,90.4s64.5-32.9,64.5-90.4c0-19.8,0-60.6,0-60.6L0.5,0.8z"/>
</g>
<path class="st1" d="M100.1,103.2c0-3.5-0.5-6.9-1.5-10.2c-9.6,6.3-19,7.9-24.7,4.5c0.3-0.4,0.5-0.9,0.5-1.4c0-1.3-1-2.3-2.3-2.3
	c-0.5,0-1,0.2-1.4,0.5c-3.4-5.6-1.8-15.1,4.5-24.7c-3.3-1-6.7-1.5-10.2-1.5s-6.9,0.5-10.2,1.5c6.3,9.6,7.9,19,4.5,24.7
	c-0.4-0.3-0.9-0.5-1.4-0.5c-1.3,0-2.3,1-2.3,2.3c0,0.5,0.2,1,0.5,1.4c-5.6,3.4-15.1,1.8-24.7-4.5c-1,3.3-1.5,6.7-1.5,10.2l0,0
	c0,3.5,0.5,6.9,1.5,10.2c9.6-6.3,19-7.9,24.7-4.5c-0.3,0.4-0.5,0.9-0.5,1.4c0,1.3,1,2.3,2.3,2.3c0.5,0,1-0.2,1.4-0.5
	c3.4,5.6,1.8,15.1-4.5,24.7c3.3,1,6.7,1.5,10.2,1.5s6.9-0.5,10.2-1.5c-6.3-9.6-7.9-19-4.5-24.7c0.4,0.3,0.9,0.5,1.4,0.5
	c1.3,0,2.3-1,2.3-2.3c0-0.5-0.2-1-0.5-1.4c5.6-3.4,15.1-1.8,24.7,4.5C99.6,110.1,100.1,106.7,100.1,103.2L100.1,103.2z M65,109.5
	c-3.5,0-6.4-2.8-6.4-6.4c0-3.5,2.8-6.4,6.4-6.4c3.5,0,6.4,2.8,6.4,6.4S68.5,109.5,65,109.5z"/>
<g>
	<path class="st1" d="M34.9,28.9c-1.3,3.8,1.4,4.9,1.4,4.9s2.4,1.5,4.7-1.8c2,0.7,2.9-0.7,2.8-1.3c-0.8,0.1-1.3,0.6-2.8-0.1
		c-1.5-0.8-1.6-1.6-1.5-1.9c0.3-0.6,1.2-0.3,2-0.3c0.8,0.1,1.6-0.4,1.7-0.9c0.2-0.7-0.3-1.3-0.8-1.5c0.8,1.7-1.8,0.6-2.4,0.3
		c-0.6-0.3-3-1.8-1.1-2.1c-0.4-0.3-1.2-0.3-1.7,0.2c-0.4,0.4-0.2,1.3,0.3,1.9s1.3,1.1,1,1.7c-0.2,0.3-0.7,0.8-2.2,0
		s-1.7-1.7-1.9-2.3C33.8,26.1,33.1,27.7,34.9,28.9z"/>
	<path class="st1" d="M40.7,20.9c-0.4-0.1-1.5-0.5-2.1-1.1c-0.9-0.8-1.1-1.4-1.5-2.1c-0.2-0.3-0.8,0.2-1.1,0.5c-0.7,0.7-0.3,2,0.8,3
		C39,23.3,40.9,21.9,40.7,20.9z"/>
	<path class="st1" d="M45.7,25.6c1.5,0.3,2.7-0.2,2.8-1.1c0.1-0.4,0.1-1.1-0.3-1.1c-0.8,0-1.3,0.3-2.5,0c-0.8-0.2-1.7-0.7-2-1
		C42.8,22.8,42.9,25.1,45.7,25.6z"/>
	<path class="st1" d="M0.5,0.8c0,0,0,40.8,0,60.6c0,57.3,64.5,90.4,64.5,90.4s64.5-32.9,64.5-90.4c0-19.8,0-60.6,0-60.6L0.5,0.8z
		 M24.7,25.7c0.8,0.4,3.7,0.3,5-1.8c-2.6,0-3.9-2.6-3.8-3.8c1.7,0.6,4.8,1.2,6.8-1.6c-0.5,0.7-4.1-1.8-3-4.1
		c2.3,1.1,8.8-2.7,5.8-6.1c2.8-0.7,5.6,0.5,6,3.5c1.7-2.4,4.1-2.3,5.3-2.2c-0.5,0.9-1,3,0.5,3.4c1.2,0.3,2.8-0.3,2.8-2.2
		c1.2,0.8,2.2,4.5,1.2,5.7c0,0,3.8-2.4,5.5,0.9c-3.4-0.1-2.9,6.5-0.9,6.8c-1.1,2.5-3.3,1.8-4.4,1.1c-0.4,1.8-0.4,6.8,1.1,8.9
		c-1.1,0.4-3.4,0-5-1.5c-0.7,1-1.3,3.9,0.2,6.7c-1.1,0.2-3.1,0-4.6-1.7c-1,2.4-3.3,6.4-7.8,5.9c0.8-4-4-5.7-6.2-1.5l-1-1.7
		c-1.4-2-2.3-7,0.3-11.2C27.5,29.4,24.3,27.6,24.7,25.7z M8.2,13.5c3.9-2.9,6.4,0.8,7.2,3.6c3.9-2.9,0.2-6.8-0.5-7.2
		c0,0,3.1-0.3,4.4,2.9c1.2,3-0.3,4.8-0.3,4.8s1,0,1.6-0.5c2.2-1.5,2.1-3.5,2-3.9c0,0,1.6,1,1.4,2.9c-0.1,1.3-1.4,2.3-2,3
		c-0.5,0.7-1.8,2.2-0.2,7c0.8,2.3,2,4.1,2.9,4.5c-0.5,1-1.4,2.2-1,5.1c-4.9,0-10.4-9.9-10.9-10.7c2.8-0.2,2.7-1.6,2.4-2.5
		c-1-3.3-7.3-0.2-7.8,0.4c0.2-3.2,3.7-4.5,5.8-4.1C12.8,13.7,8.2,13.5,8.2,13.5z M15,40.8c0,0,2-3.2-1-5.5c0,0,3.4-0.3,4.3,2
		c0.4,1.1-0.4,3.1,0.2,4.4c0.6,1.3,2.3,2,4.3,2.2c6.8,0.8,7-0.2,8.7-0.4c1.5,0.7,1.8,2.8,1.4,3.1c6.9,1.4,9.8-2.9,10.8-4.6
		c2.4,1.6,7-0.6,8.2-1c-1.5-1.6-2.7-3.5-2.4-4.5c3,1.4,6.2-0.3,7.9-1.1c-3.7-2.3-2.9-6.4-2.9-7.7c3.8-0.5,25.3-3.6,28.4-4
		c3.4-0.5,6.8-0.1,8,0.1c1.3,0.2,6,1.3,9.9,1.3s5.4-1.5,5.9-2.8C109,16,96,18.5,92.6,19.6c-2.6,0.8-15.5,3-19.1,3.2
		c-8.5,0.6-12-3.5-11.9-7.5c0.1-3.9,4.8-4.8,10-4.6s5.5-2.2,10.9-2.5c5.6-0.3,13.9,3.3,15,4.8c-3.7-0.3-5.2,0.2-7.2,0.9
		s-5.8,2.3-8.8,2.3c-1.1,0-3.2,0-5.3-0.7c-2.9-1-6.6-2.5-9.1-2.5c-1.6,0-3.4,1-3.2,3.2c0.4,3.7,5.3,4.7,8.7,4.7S81.1,20,86.5,19
		c5.5-1,9.6-3.2,15-3.7c8.7-0.8,8.9,6.2,8.9,6.2c3.6-3.8,8.4-1.9,8.8,0.6c0,0-2.9-1-5.3,0.2c-3,1.6-3,4.2-6.6,5.8
		c-3.6,1.7-13.3,0.5-13.3,0.5s-1.5,5.6,2.3,6.3c3.8,0.6,8.6-2.7,8.6-2.7c0.9,0.8,1,2.7,0.9,3.4c3-2.2,6.2-2.5,7.6-1.7
		c-4,1.6,4,6.5,4.6,7.7c0,0-2.8,0.4-1.8,2.2c0.2,0.4,1.8,3.8,7.6,0.2c-1.7,3.8-5.3,4.3-7,3.5c0,0-0.8,2.6,4.3,4.2
		c-4.9,0.3-7.1-1.8-7.4-2.8c0,0-3.4,2.5-2.4,6.1c-3.7-2-1.1-6.8,0.3-8c-1.5-0.3-5.6-0.6-7.2,2c0,0-0.5-2.5,1.3-3.5
		c1.3-0.7,3.4-0.2,4.7-0.1c0.5,0,0.8-0.5,0.6-1.2c-0.1-0.2-1-2.9-4.6-2.7c-3.6,0.3-9.4,0.9-13.6,1.3c-1.7,0.2-4.4,0.9-6.1-0.7
		c-1.7-1.6-1.3-3.9-3-6.3c-3.3-4.6-13.7,2.8-22.1,6.8c-4.6,2.2-9.1,2.7-11.9,3.9c-2.4,1-4.3,2.4-4.3,4.1c0,1.1,1.4,1.8,1.4,1.8
		c-1.2,0.9-8.1,1-8.8-1.2c-2.2,2.7-8.1,2.5-9.1,1.9c1.9-1.4,0-3.2,0-3.2c-1.2,1.3-4,3.8-10.2,1c0,0,2-2.4-0.8-3.2
		c-0.8-0.2-1.7,0.2-1.9,0.8c-0.3,0.9-2.3,3.6,0,5.4c-2.3,0.2-5.2-3.8-2.7-8c-0.9-0.3-6,0.1-6.2,3.9c-2.8-5.6,2.7-6.9,5.7-7.1l0,0
		c0,0-2.3-4.2-6.7-2.5C7.7,35.2,12.1,38,15,40.8z M71.4,56.9c-3.3,0.8-5.1-3.1-4.8-5.2c0,0-4.3,0.7-4.7,5c-2.3-3.7,0.8-6,2.2-6.2
		c0,0-3.1-3.3-7.1-0.9c0.3-2.3,4.5-4.7,9.1-1.2c0,0-0.9-4.3-3.9-4.2c0,0,1.9-1.3,3.6-0.6c2.1,0.9,2.1,3.6,3.6,4.1
		c2,0.6,5.1-1.4,5.4-1.7s0.6-0.7,0-1.2c-0.3-0.2-0.6-0.5-1.9-1.2c-2-0.9-0.3-3.8,0.2-4.3c1.8-1.7,5.1-3.3,7.2-1.2
		c1.5,1.5,2.3,5.4,2.5,6s1.5,3.8,4.8,4.3c-2.5,1.7-6,0.6-7.3-1.3c0.2,2.5-3.3,7.1-4.6,7.2c0,0,0-3.6-4.7-3.1
		c-0.9,0.1-1.5,0.5-1.5,1.1C69.4,53.6,69,55.3,71.4,56.9z M126,61.9c0,54.4-61,85.5-61,85.5S4,116.1,4,61.9c0-0.2,0-0.3,0-0.5h122
		C126,61.6,126,61.8,126,61.9z"/>
</g>
</svg>
