<?xml version="1.0" encoding="UTF-8"?>
<svg width="24px" height="24px" viewBox="0 0 24 24" version="1.1" xmlns="http://www.w3.org/2000/svg" xmlns:xlink="http://www.w3.org/1999/xlink">
    <!-- Generator: Sketch 50.2 (55047) - http://www.bohemiancoding.com/sketch -->
    <title>tick</title>
    <desc>Created with Sketch.</desc>
    <defs></defs>
    <g id="tick" stroke="none" stroke-width="1" fill="none" fill-rule="evenodd">
        <path d="M12,22 C6.4771525,22 2,17.5228475 2,12 C2,6.4771525 6.4771525,2 12,2 C17.5228475,2 22,6.4771525 22,12 C22,17.5228475 17.5228475,22 12,22 Z M16.5667232,8.07841026 L10.1243973,16.1313176 L7.31017991,13.7861364 C6.93893903,13.4767691 6.38719702,13.5269274 6.07782962,13.8981683 C5.76846223,14.2694092 5.81862059,14.8211512 6.18986147,15.1305186 L9.68984816,18.0471742 C10.0663494,18.3609252 10.6271052,18.3042889 10.933265,17.9215892 L17.9332384,9.17162244 C18.2351206,8.79426968 18.1739396,8.24364094 17.7965869,7.94175874 C17.4192341,7.63987653 16.8686054,7.7010575 16.5667232,8.07841026 Z" id="Combined-Shape" fill="#FFFFFF"></path>
    </g>
</svg>