<svg width="9" height="30" viewBox="0 0 9 30" fill="none" xmlns="http://www.w3.org/2000/svg">
<path fill-rule="evenodd" clip-rule="evenodd" d="M0 4.35486C0 6.76208 1.94775 8.70972 4.35498 8.70972C6.76221 8.70972 8.70947 6.76208 8.70947 4.35486C8.70947 1.94763 6.76221 0 4.35498 0C1.94775 0 0 1.94763 0 4.35486ZM4.35498 10.6451C6.76221 10.6451 8.70947 12.5928 8.70947 15C8.70947 17.4072 6.76221 19.3549 4.35498 19.3549C1.94775 19.3549 0 17.4072 0 15C0 12.5928 1.94775 10.6451 4.35498 10.6451ZM4.35498 30C1.94775 30 0 28.0524 0 25.6451C0 23.2379 1.94775 21.2903 4.35498 21.2903C6.76221 21.2903 8.70947 23.2379 8.70947 25.6451C8.70947 28.0524 6.76221 30 4.35498 30Z" fill="#1E1B2E"/>
<mask id="mask0" mask-type="alpha" maskUnits="userSpaceOnUse" x="0" y="0" width="9" height="30">
<path fill-rule="evenodd" clip-rule="evenodd" d="M0 4.35486C0 6.76208 1.94775 8.70972 4.35498 8.70972C6.76221 8.70972 8.70947 6.76208 8.70947 4.35486C8.70947 1.94763 6.76221 0 4.35498 0C1.94775 0 0 1.94763 0 4.35486ZM4.35498 10.6451C6.76221 10.6451 8.70947 12.5928 8.70947 15C8.70947 17.4072 6.76221 19.3549 4.35498 19.3549C1.94775 19.3549 0 17.4072 0 15C0 12.5928 1.94775 10.6451 4.35498 10.6451ZM4.35498 30C1.94775 30 0 28.0524 0 25.6451C0 23.2379 1.94775 21.2903 4.35498 21.2903C6.76221 21.2903 8.70947 23.2379 8.70947 25.6451C8.70947 28.0524 6.76221 30 4.35498 30Z" fill="white"/>
</mask>
<g mask="url(#mask0)">
</g>
</svg>
